<?xml version="1.0" encoding="utf-8"?>
<!-- Generator: Adobe Illustrator 16.0.4, SVG Export Plug-In . SVG Version: 6.00 Build 0)  -->
<!DOCTYPE svg PUBLIC "-//W3C//DTD SVG 1.1//EN" "http://www.w3.org/Graphics/SVG/1.1/DTD/svg11.dtd">
<svg version="1.1" id="图层_1" xmlns="http://www.w3.org/2000/svg" xmlns:xlink="http://www.w3.org/1999/xlink" x="0px" y="0px"
	 width="394.062px" height="136.347px" viewBox="0 0 394.062 136.347" enable-background="new 0 0 394.062 136.347"
	 xml:space="preserve">
<g>
	<path fill="#FFFFFF" d="M74.295,10.204c1.128,0.718,1.537,2.357,1.64,4.614c-0.615,0.616-1.126,1.026-1.64,1.333v11.486
		c5.127-2.77,12.306-7.896,12.819-12.921c-2.667-3.897-9.026-8.82-12.819-9.127V10.204L74.295,10.204z M74.295,59.635v-6.973
		c0.205,0,0.308-0.104,0.411-0.104C77.577,54.61,76.347,57.174,74.295,59.635z M72.858,17.075c0-2.461-0.102-4.923-0.102-7.282
		c0.615,0,1.128,0.103,1.539,0.411V5.589c-0.103,0-0.204,0-0.41,0c-0.206-4.205-2.256-5.846-5.436-4.718
		c-2.256,2.358-3.692,5.333-4.82,8.512v44.51c1.743-3.077,3.896-6.051,5.64-8.616c0.104-0.204,0.309-0.308,0.411-0.512
		c0.411-0.718,0.411-0.718,0.307-1.539c-1.128-5.436-3.281-9.538,1.949-14.461c0.718-0.308,1.538-0.718,2.359-1.128V16.152
		C73.885,16.562,73.372,16.767,72.858,17.075L72.858,17.075z M74.295,52.662v6.973c-1.949,2.359-4.717,4.718-5.333,6.666
		c0.616,1.95,3.896,1.539,4.614,6.975c-3.794,15.385-2.153,30.973,0.616,47.483c-0.922,3.795-6.051,4.512-8.82,4.512
		c-0.512-0.409-1.127-1.023-1.743-1.743v-9.946c0.103,0,0.103,0,0.204,0c1.13-2.976,0.718-7.692-0.204-9.846v-8.819h0.204
		c-0.204-1.743-0.101-3.693,0-5.538c0,0-0.101-0.104-0.204-0.104v-8.409c0.308,0.205,0.616,0.512,0.718,0.512
		c0.204-0.615,0.718-3.589,0.513-4.204c-0.103-0.104-0.718-0.513-1.231-0.718V58.61C66.911,56.149,70.398,53.584,74.295,52.662z
		 M63.629,9.383v44.51c-1.231,2.256-2.358,4.616-2.872,6.872c0.923-0.718,1.847-1.437,2.872-2.154v17.846
		c-0.308-0.104-0.718-0.206-0.821-0.206c-0.513,1.538-0.819,3.896,0.103,4.205c0.102,0,0.41,0.204,0.718,0.41v8.409
		c-0.821-0.513-2.358-1.23-3.077-1.23l-0.307,1.539l0.103,1.436l0.103,1.539l0.615,1.231l2.563,1.128v8.819
		c-0.102-0.205-0.102-0.309-0.205-0.411c-3.385-1.127-4.103-1.127-5.23-3.384c-0.412,0-0.821,0-1.334,0.103
		c-0.821,2.154-1.128,5.436-2.461,10.151c-0.412,3.283,0,19.076-7.077,17.946c-3.281-2.768-2.974-2.561-3.18-5.947
		c2.462-11.792,4.821-22.048,8.41-33.021c0.309-5.437,3.077-9.435,4.308-13.845c-4.308,0.102-8.204,4.613-10.665-0.41
		c0-0.718,0-1.332,0.102-2.05c5.947-6.771,6.871-13.026,5.025-21.127c-0.103-0.516,0.409-1.232,0.615-1.643
		c1.436-2.666,3.487-5.641,2.667-8.102c-3.999,0.103-8.717,6.051-11.281,8.41c-6.255,4.613-6.872,5.641-9.744,7.384
		c-8.819,2.562-8.921,2.462-10.152,10.666c0.513,12.409-1.948,27.483-6.461,39.894c-0.719,4.309-1.333,8.615-1.949,13.024
		c0,4,1.128,11.485-3.794,13.64c-0.411-0.308-0.821-0.512-1.23-0.718V55.122c0.819,2.462,1.333,5.642,2.871,8.41
		c6.46,2.05,2.871,10.052,2.974,16.307c1.436-2.256,1.846-5.437,2.256-7.488c0.718-10.46-0.103-14.151,5.845-21.022
		c3.59-2.359,9.23-5.436,11.897-7.691c18.869-10.358,18.869-10.358,20.306-11.691C60.451,25.281,61.168,16.665,63.629,9.383
		L63.629,9.383z M63.629,113.58c-1.436-0.104-1.539-0.104-4.82-1.438c-0.309,2.667,2.05,8.104,4.82,11.384V113.58L63.629,113.58z
		 M9.994,31.843c0.512,0,1.024,0,1.537-0.103c1.128-0.308,2.359-0.719,3.59-1.333c1.23-0.615,1.846-0.719,2.153-2.463
		c0.821-5.229-2.974-7.794-7.281-8.717L9.994,31.843L9.994,31.843z M9.994,19.228v12.615c-0.206,0-0.514,0-0.719,0
		c-0.513-0.308-1.025-0.615-1.537-1.025c-3.693-2.872-5.642-7.179-4.821-11.589C4.967,18.818,7.532,18.818,9.994,19.228
		L9.994,19.228z M9.994,55.122v79.173c-3.077-1.642-5.027-2.975-6.77-5.024c-1.332-6.562-1.332-6.562-2.051-13.846
		c-0.102-3.896,0-7.895,0.103-11.69c0.103-7.281,0.309-14.562,0.412-21.844c-0.103-2.668-0.206-5.333-0.206-7.897
		c-0.206-2.666-0.513-5.437-0.513-8.103v-1.025c0-5.64,1.334-10.769,6.77-13.024C8.864,52.559,9.479,53.687,9.994,55.122z"/>
	<path fill="#FFFFFF" d="M364.322,103.323c1.946-0.409,3.795-0.821,5.333-1.025c2.051,0.514,3.69,1.025,6.562,3.077
		c0.104,5.538-8.717,6.152-11.896,9.229V103.323L364.322,103.323z M364.322,120.041c0.205,0.41,0.512,0.819,0.82,1.23
		c0.204,2.256,0,5.435-0.82,8.204V120.041L364.322,120.041z M393.551,43.227v2.462c-0.924,6.87-9.743,9.641-13.743,15.382
		c-0.82,0.616-1.743,1.13-2.563,1.848c-4.717,0.103-8.922,2.256-12.921,4.615V55.431c1.127-1.436,2.152-2.564,8.102,0.512
		c5.641-0.718,8.308-5.641,11.075-9.948c-1.333-4.409-15.28,2.256-18.355,2.873c-0.205,0.308-0.515,0.615-0.82,0.922V19.946
		c4.717-4.922,8.923-10.05,8.102-16.818c0.821-5.538,6.153-2.563,10.051,0.103c3.59,5.948-1.437,8.41-6.667,13.23
		c-2.974,3.795-6.051,8-9.845,11.178c0,0.308,0,0.719,0,1.128c5.231,0.924,7.692-0.512,7.896,5.539
		c-1.538,2.564-4.204,5.024-3.485,8.819c7.793-2.667,14.766-6.666,23.073-0.513C393.447,42.816,393.447,43.021,393.551,43.227
		L393.551,43.227z M364.322,91.325v-6.46c3.179-2.257,6.255-4.719,6.152-6.872c-0.719,0-1.537,0.103-2.357,0.308
		c-0.821,0.614-2.257,1.743-3.795,2.974v-4.41c3.589-1.947,7.178-3.896,10.769-5.948c2.974-0.308,9.642-1.229,9.024,4.207
		c-3.077,1.436-8.309,8.101-10.563,10.665C370.374,87.633,367.296,89.377,364.322,91.325z M357.963,136.347
		c-4.512-1.229-24.101-6.769-21.229-11.69c4.513-0.104,11.691,4.204,18.563,3.383c2.153-3.179,1.126-10.255-0.103-13.023
		c-6.36,0.205-8.515,4-13.333,5.64c-2.358-0.103-5.23-0.307-7.794-0.923v-8.407c5.023-2.053,10.871-3.591,16.203-5.231
		c2.357-1.846-1.128-3.488,3.794-2.975c1.847,1.539,6.257,0.923,10.257,0.205v11.28c-1.334,1.232-1.643,2.873,0,5.438v9.435
		C363.296,132.757,361.45,135.629,357.963,136.347L357.963,136.347z M364.322,19.946v29.844c-2.154,2.154-6.359,5.744-3.59,8.103
		c2.052-0.41,2.871-1.538,3.59-2.46v12.103c-4.206,2.562-8.308,5.333-12.719,6.46c-0.102-0.409-0.308-0.821-0.308-1.23
		c2.77-2.051,9.128-5.743,9.64-8.923c-6.255-2.871-5.537-2.46-10.562,0.923c-7.589,2.461-10.46,3.384-15.177,8.307
		c-0.515,1.231-0.82,2.771-1.128,4.205v-8.819c4.102-4.309,9.229-6.872,13.641-10.769c0.102-1.23,0.102-2.564,0.204-3.691
		c1.64-0.104,3.384-0.31,5.025-0.412c3.999-4.514,10.255-14.459,9.64-19.691c-3.897-0.101-7.486,2.462-10.357,1.13
		c-0.104-3.896,0.615-3.691,3.691-5.947C358.271,25.895,361.45,22.921,364.322,19.946L364.322,19.946z M364.322,76.863
		c-0.719,0.31-1.334,0.721-1.95,1.027c-9.126,4.103-18.151,9.641-26.868,13.743c-1.128,1.025-1.23,0.821-1.23,2.665
		c1.438,0.821,1.438,0.821,2.563,0.923c3.282-0.206,6.462-0.41,9.742-0.512c4.308,0.205,6.769-3.693,10.154-5.437
		c0.718-0.309,0.922,0.409,0.512,0.821c-2.665,2.461-7.896,7.178-7.794,10.46c0.616,0,1.229,0,1.743,0.104
		c4.204-3.386,8.513-6.463,13.128-9.333v-6.46c-2.358,1.537-4.821,2.974-6.256,3.896c0-1.64,3.281-4.922,6.256-7.486V76.863
		L364.322,76.863z M334.068,61.687c4.921-0.82,8.307-2.562,8.102-8.206c-2.257-1.947-5.437-4.306-8.102-6.666V61.687z
		 M334.068,119.732c-3.385-0.717-5.948-2.256-5.743-5.537c1.742-1.026,3.69-1.948,5.743-2.87V119.732L334.068,119.732z
		 M334.068,46.815v14.871c-0.104,0.103-0.104,0.103-0.206,0.103c-0.204-2.256-0.204-4.308-0.308-6.357
		c-2.668-3.386-10.975-12.205-6.051-15.384c0.615,0.41,1.23,0.923,1.742,1.435C329.965,43.021,331.915,44.969,334.068,46.815
		L334.068,46.815z M334.068,68.455v8.819c-0.311,1.539-0.615,2.975-1.026,3.896c-0.512,0.103-1.127,0.205-1.743,0.308
		c-6.461-3.077-10.256-7.895-10.46-13.434V67.02c0-0.103,0-0.205,0-0.308c4.717-0.104,5.436,5.333,13.023,1.948
		C333.966,68.557,333.966,68.557,334.068,68.455z"/>
	<path fill="#FFFFFF" d="M163.518,27.022c0.615-0.204,1.128-0.41,1.744-0.718c5.538-6.768,11.178-14.666,16.92-21.64
		c4.104-0.41,4.924-1.333,6.667,4c-0.923,3.077-4.103,4.616-4.718,7.691c2.154-1.128,4.204-1.846,5.742-4.205
		c2.359-0.614,5.845,0.924,6.257,3.385v0.923c-0.206,1.024-0.821,2.256-2.359,3.384c-7.896,2.974-16.921,6.461-23.28,11.691
		c-2.461,2.873-4.717,5.743-6.974,8.614L163.518,27.022L163.518,27.022z M163.518,44.662v6.257c2.257-1.744,5.23-2.975,7.795-4.718
		c0.306,0,0.718,0,1.229,0.103c0,0.307,0,0.718,0.103,1.229c-1.231,1.23-1.231,1.23-2.667,2.052
		c-1.539,3.487-3.794,5.229-6.461,6.563V73.48c6.358-5.743,10.46-14.356,16.921-19.588c3.794-4.409,6.051-5.642,2.257-9.333
		C180.851,33.381,170.39,40.868,163.518,44.662L163.518,44.662z M163.518,76.044c4.718-1.846,13.026-6.974,15.999-8.512
		c2.666,0.922,3.383,1.64,3.383,5.639c-4.614,3.69-9.025,6.769-12.305,11.794c0.102,4.411,3.589,4.512,8.101,7.076
		c2.768,4.205-8,10.46-15.179,14.871v-6.358c2.359-1.539,4.718-3.487,5.333-5.641c-2.462-4.411-2.462-4.411-5.333-4.309
		L163.518,76.044L163.518,76.044z M160.75,28.151c0.922-0.41,1.844-0.717,2.768-1.128V40.15h-0.103
		c-1.436,1.128-2.154,1.642-2.666,2.153L160.75,28.151L160.75,28.151z M160.75,46.098c0.821-0.409,1.743-0.821,2.768-1.436v6.257
		c-1.128,0.82-2.153,1.743-2.768,2.974V46.098L160.75,46.098z M163.518,73.48c-0.924,0.719-1.744,1.437-2.667,2.052
		c0,0.309,0,0.819,0,1.229c0.617,0,1.539-0.204,2.667-0.717v14.562c-0.512,0.104-0.924,0.104-1.538,0.104
		c-0.409,0.308-0.821,0.512-1.23,0.821V67.43c1.64-1.436,3.077-3.487,2.358-4.821c-0.922,0.206-1.743,0.412-2.358,0.719v-5.846
		c0.922-0.409,1.844-0.82,2.768-1.333V73.48L163.518,73.48z M163.518,106.913c-1.025,0.617-1.947,1.23-2.768,1.743v-6.563
		c0.821-0.411,1.844-0.923,2.768-1.539V106.913z M157.364,122.092c0,3.281,0.103,6.769,0.309,10.153
		c0,1.332-1.026,2.666-2.359,2.974c-5.641-4.923-5.333-14.152-6.257-20.101c-5.23-0.719-5.538-0.515-5.948-4.718
		c3.077-0.718,3.077-0.718,5.845-2.052c1.437-3.075,0.515-11.896-0.409-13.844c-5.127,0.103-10.872,7.589-15.179,9.846
		c-4.718,5.333-6.871,5.024-12.205,2.359c0.104-0.412,0.206-0.821,0.309-1.13c5.127-2.051,24.715-14.254,25.843-20.511
		c-1.436-0.203-1.436-0.203-2.563-1.128c0-0.409,0-0.923,0-1.23c1.025-0.819,2.153-1.641,3.18-2.46
		c0.821-1.848,1.64-7.795,0.821-8.922c-5.846,0.102-8.307,11.485-15.076,9.331c-3.59,2.154-9.948,7.385-13.846,5.231
		c-0.104-0.924,0-1.642,0.103-2.462c3.486-1.64,6.358-3.896,11.075-6.357c2.359-3.999,0-8.41,4.512-9.332
		c0.514,0.614,1.129,1.334,1.745,2.052c11.588-0.206,11.896-17.436,11.999-24.82c2.359-4.308,8.101-3.69,8.614-9.538
		c-9.229,1.232-8.408,10.358-15.177,11.795c-1.027-0.412-1.95-0.82-2.873-1.334c-8,0.103-11.691,8.615-19.178,2.563
		c-0.103-0.41-0.103-0.717-0.103-1.025c11.075-5.641,11.075-5.641,18.049-8.717c5.026-4.41,1.641-13.23,2.769-18.769
		c5.641,0,5.435,9.128,9.229,12.307c3.386-1.437,6.769-2.771,10.154-4.103v14.152c-0.82,0.82-0.82,1.641-1.539,4.205
		c0.41-0.102,0.922-0.204,1.539-0.41v7.795c-0.616,1.127-1.027,2.461-1.027,4.103c0.411-0.206,0.718-0.308,1.027-0.514v5.846
		c-1.95,0.923-2.564,2.563-2.564,5.745c0.614-0.206,1.641-0.821,2.564-1.643v24.1c-3.59,2.664-2.462,6.665-2.359,11.485
		c0.615-0.205,1.436-0.514,2.359-0.923v6.563c-1.027,0.615-1.847,1.129-2.462,1.641
		C157.877,111.221,157.877,111.221,157.364,122.092z"/>
	<path fill="#FFFFFF" d="M269.458,56.97c1.229-2.77,1.128-6.463,2.771-8.307c2.664,1.947,2.664,1.947,5.641,3.588
		c3.178,4.103-2.359,10.46-8.41,15.69L269.458,56.97L269.458,56.97z M269.458,115.734v-15.179c3.795,3.281,8.308,6.358,11.281,7.692
		c2.975,0.205,5.948,0.409,8.923,0.614c0.104,3.898-10.562,9.437-14.051,9.949c-1.334-0.412-2.666-0.717-4-0.924
		C270.895,117.272,270.176,116.555,269.458,115.734z M218.488,122.81c-0.205-0.308-0.309-0.718-0.41-1.024
		c0.102-0.412,0.307-0.719,0.513-1.027c14.357-5.23,25.946-21.535,28.818-37.227c-0.103-0.309-0.103-0.719-0.103-1.025
		c-5.334,0.615-10.053,2.562-14.666,2.562c-9.436-5.435-3.795-6.667,3.691-8c5.229-2.562,10.46-5.536,15.279-9.742
		c3.591-12.205,7.691-24.512,9.334-36.51c2.152-2.358-1.131-4.818,3.484-6.461c1.539,0.924,3.077,1.229,4.104,4.409
		c-1.231,9.231-2.462,19.485-5.026,29.435c0,0.718,0.102,1.436,0.205,2.256c3.282,0,4.821-1.539,5.743-3.486v10.972
		c-4.718,4-9.642,7.385-11.28,8.616c-1.847,5.024-3.591,10.05-5.23,15.177C243,107.118,235.613,119.219,218.488,122.81
		L218.488,122.81z M269.458,100.555c-2.974-2.462-5.435-5.026-6.151-6.872c-2.156-1.333-2.053-0.718-3.182-0.718
		c0,1.642,0,3.281,0.104,4.923c1.437,4.409,5.024,12.921,9.229,17.845V100.555z"/>
</g>
</svg>
